<svg xmlns="http://www.w3.org/2000/svg" viewBox="0 0 128 128"><rect width="128" height="128" rx="24" fill="#f3e6dc"/><ellipse cx="32" cy="40" rx="15" ry="15" fill="#bd8b6d"/><ellipse cx="32" cy="40" rx="10" ry="10" fill="#d8b4b2"/><ellipse cx="96" cy="40" rx="15" ry="15" fill="#bd8b6d"/><ellipse cx="96" cy="40" rx="10" ry="10" fill="#d8b4b2"/><ellipse cx="64" cy="70" rx="39" ry="35" fill="#bd8b6d"/><ellipse cx="64" cy="83" rx="23" ry="16" fill="#fae8cb"/><ellipse cx="48" cy="67" rx="3.5" ry="4.5" fill="#34434b"/><ellipse cx="47" cy="65.5" rx="1" ry="1" fill="#ffffff"/><ellipse cx="80" cy="67" rx="3.5" ry="4.5" fill="#34434b"/><ellipse cx="79" cy="65.5" rx="1" ry="1" fill="#ffffff"/><ellipse cx="37" cy="79" rx="7" ry="4" fill="#e9a5a3"/><ellipse cx="91" cy="79" rx="7" ry="4" fill="#e9a5a3"/><path d="M59 78Q64 75 69 78Q68 83 64 83Q60 82 59 78" fill="#655252"/><path d="M64 83v3m0 0q-5 5-9 0m9 0q5 5 9 0" fill="none" stroke="#655252" stroke-width="2" stroke-linecap="round"/></svg>
